#!OML:ASF X:\für Bonn\!DataBase\2005_08_11_Bastian_Final\c3d\Bastian.ASF
:FULLY-SPECIFIED
:DEGREES
155
root -2.7624 17.3303 -0.325549 897.823 44.7517 -173.618
lowerback 18.0164 -4.71239 1.10678
upperback 16.2349 -3.60932 4.55505
thorax 7.94702 -0.952274 4.86536
lowerneck -20.1301 -11.0145 -19.4269
upperneck -4.63549 -10.8773 30.5137
head 5.35428 -3.53609 12.333
rclavicle 1.47101e-014 4.6118e-014
rhumerus -30.1449 3.07875 -80.0133
rradius 32.5553
rwrist 0.0637467
rhand -11.7016 7.45154
rfingers 7.12502
rthumb 14.3446 -22.0329
lclavicle 1.47101e-014 4.6118e-014
lhumerus -4.80695 -29.2591 93.4207
lradius 57.0091
lwrist 14.8326
lhand -14.7586 -13.5722
lfingers 7.12502
lthumb 11.3976 16.098
rfemur -31.6025 2.36641 18.8397
rtibia 37.4649
rfoot 10.1424 0.24353
rtoes -32.849
lfemur 11.2446 2.20721 -16.781
ltibia 23.7465
lfoot -17.7454 -11.9748
ltoes 7.31633
156
root -2.69323 17.3208 -0.376114 897.876 44.6465 -173.634
lowerback 17.9495 -4.78789 1.16356
upperback 16.2299 -3.70504 4.6026
thorax 7.98468 -0.997821 4.89365
lowerneck -20.2311 -11.0469 -19.4834
upperneck -4.6747 -10.8824 30.5458
head 5.36785 -3.5282 12.355
rclavicle -1.39149e-014 6.20208e-014
rhumerus -30.2939 3.06574 -80.0024
rradius 32.395
rwrist -0.0740043
rhand -11.8883 7.64582
rfingers 7.12502
rthumb 14.1647 -21.8513
lclavicle -1.39149e-014 6.20208e-014
lhumerus -5.00193 -29.0399 93.6217
lradius 56.7924
lwrist 14.6918
lhand -14.8164 -13.5366
lfingers 7.12502
lthumb 11.3418 16.1367
rfemur -31.5754 2.42716 18.73
rtibia 37.0207
rfoot 10.1263 0.0112516
rtoes -33.353
lfemur 11.6278 2.29801 -16.6479
ltibia 23.4387
lfoot -17.7299 -12.2356
ltoes 7.20369
157
root -2.62231 17.3117 -0.426034 897.871 44.5196 -173.716
lowerback 17.9237 -4.86201 1.13745
upperback 16.2011 -3.80937 4.66694
thorax 7.98245 -1.05815 4.98877
lowerneck -20.3088 -11.0787 -19.6238
upperneck -4.7036 -10.8769 30.6023
head 5.38591 -3.51646 12.406
rclavicle -5.04913e-014 3.81667e-014
rhumerus -30.4629 3.0509 -79.9381
rradius 32.2181
rwrist -0.0543186
rhand -12.0667 7.8476
rfingers 7.12502
rthumb 13.9927 -21.6615
lclavicle -5.04913e-014 3.81667e-014
lhumerus -5.28254 -28.7561 93.8992
lradius 56.5733
lwrist 14.5111
lhand -14.9052 -13.5202
lfingers 7.12502
lthumb 11.2562 16.1578
rfemur -31.5594 2.46142 18.5738
rtibia 36.6687
rfoot 10.0974 -0.168512
rtoes -33.745
lfemur 12.0117 2.42144 -16.5335
ltibia 23.1419
lfoot -17.7026 -12.5729
ltoes 7.04004
158
root -2.55112 17.3004 -0.475281 897.886 44.4093 -173.774
lowerback 17.8874 -4.9261 1.15548
upperback 16.191 -3.89244 4.71884
thorax 8.00127 -1.10119 5.04325
lowerneck -20.4042 -11.1106 -19.6882
upperneck -4.75171 -10.8766 30.6115
head 5.39212 -3.50777 12.4211
rclavicle 2.46493e-014 -7.4743e-014
rhumerus -30.5809 2.90091 -79.8544
rradius 32.0286
rwrist 0.147921
rhand -12.2279 8.01645
rfingers 7.12502
rthumb 13.8374 -21.5033
lclavicle 2.46493e-014 -7.4743e-014
lhumerus -5.51465 -28.4238 94.1707
lradius 56.3268
lwrist 14.283
lhand -14.9138 -13.5107
lfingers 7.12502
lthumb 11.2479 16.1677
rfemur -31.567 2.47992 18.4597
rtibia 36.4029
rfoot 10.0925 -0.264075
rtoes -34.1521
lfemur 12.3906 2.57553 -16.3908
ltibia 22.8643
lfoot -17.6655 -12.8936
ltoes 6.81644
159
root -2.47842 17.2891 -0.524181 897.931 44.2647 -173.785
lowerback 17.8742 -5.01528 1.2104
upperback 16.1734 -4.00229 4.76513
thorax 7.99762 -1.15334 5.07454
lowerneck -20.5351 -11.1377 -19.7322
upperneck -4.76086 -10.8771 30.6319
head 5.4158 -3.49479 12.4374
rclavicle 4.09496e-014 -3.73715e-014
rhumerus -30.6933 2.78706 -79.7923
rradius 31.8293
rwrist 0.462325
rhand -12.386 8.15162
rfingers 7.12502
rthumb 13.685 -21.3784
lclavicle 4.09496e-014 -3.73715e-014
lhumerus -5.76442 -28.1292 94.3789
lradius 56.1195
lwrist 14.1462
lhand -14.965 -13.4827
lfingers 7.12502
lthumb 11.1985 16.1984
rfemur -31.5947 2.40475 18.4178
rtibia 36.233
rfoot 10.0897 -0.22858
rtoes -34.5944
lfemur 12.7633 2.70813 -16.2007
ltibia 22.5905
lfoot -17.6106 -13.2278
ltoes 6.60202
160
root -2.40404 17.2771 -0.573989 897.942 44.1349 -173.839
lowerback 17.8519 -5.08795 1.23667
upperback 16.1656 -4.09345 4.80531
thorax 8.01077 -1.19831 5.11298
lowerneck -20.6617 -11.1612 -19.7984
upperneck -4.78516 -10.8644 30.6864
head 5.43671 -3.47384 12.4746
rclavicle -1.63003e-014 2.38542e-014
rhumerus -30.7793 2.51928 -79.6759
rradius 31.63
rwrist 1.00703
rhand -12.486 8.27076
rfingers 7.12502
rthumb 13.5887 -21.2658
lclavicle -1.63003e-014 2.38542e-014
lhumerus -6.00677 -27.8272 94.5939
lradius 55.9069
lwrist 13.982
lhand -15.0241 -13.4512
lfingers 7.12502
lthumb 11.1415 16.233
rfemur -31.6338 2.29116 18.3707
rtibia 36.1519
rfoot 10.1335 -0.0183312
rtoes -34.9614
lfemur 13.1462 2.79056 -16.0646
ltibia 22.3213
lfoot -17.5905 -13.52
ltoes 6.34598
161
root -2.32906 17.2646 -0.622294 897.974 43.9755 -173.886
lowerback 17.8519 -5.17027 1.22455
upperback 16.1412 -4.20135 4.88285
thorax 8.00244 -1.25828 5.21669
lowerneck -20.8431 -11.1766 -19.8341
upperneck -4.74664 -10.8487 30.6334
head 5.46814 -3.45174 12.463
rclavicle -8.3092e-014 1.82882e-014
rhumerus -30.8407 2.32022 -79.5061
rradius 31.4182
rwrist 1.59613
rhand -12.5434 8.36378
rfingers 7.12502
rthumb 13.5333 -21.1764
lclavicle -8.3092e-014 1.82882e-014
lhumerus -6.2606 -27.4609 94.8551
lradius 55.6961
lwrist 13.8011
lhand -15.059 -13.4254
lfingers 7.12502
lthumb 11.1078 16.2606
rfemur -31.7068 2.11508 18.3516
rtibia 36.1623
rfoot 10.1526 0.242875
rtoes -35.2212
lfemur 13.5081 2.81612 -15.9236
ltibia 22.0557
lfoot -17.5646 -13.7975
ltoes 6.11548
162
root -2.25273 17.2508 -0.671472 897.97 43.8287 -173.942
lowerback 17.8773 -5.23785 1.2335
upperback 16.1205 -4.28397 4.94341
thorax 7.97903 -1.30136 5.28858
lowerneck -20.9304 -11.1719 -19.8417
upperneck -4.77129 -10.8126 30.6109
head 5.46326 -3.42734 12.4617
rclavicle 3.18055e-014 5.40694e-014
rhumerus -30.903 2.04052 -79.3189
rradius 31.1857
rwrist 2.27558
rhand -12.5845 8.47942
rfingers 7.12502
rthumb 13.4937 -21.0634
lclavicle 3.18055e-014 5.40694e-014
lhumerus -6.51988 -27.1595 95.1018
lradius 55.4774
lwrist 13.6406
lhand -15.1371 -13.4474
lfingers 7.12502
lthumb 11.0325 16.2426
rfemur -31.7566 1.884 18.3538
rtibia 36.2688
rfoot 10.1032 0.583738
rtoes -35.4302
lfemur 13.9114 2.8279 -15.8047
ltibia 21.7936
lfoot -17.5703 -14.0111
ltoes 5.80393
163
root -2.17541 17.2363 -0.721048 898.032 43.6705 -173.96
lowerback 17.8693 -5.315 1.28091
upperback 16.0957 -4.37817 5.00753
thorax 7.96601 -1.34736 5.34238
lowerneck -21.0762 -11.162 -19.7934
upperneck -4.75751 -10.7772 30.5307
head 5.46845 -3.40019 12.4261
rclavicle 9.50191e-014 -1.59028e-014
rhumerus -30.9563 1.81876 -79.1616
rradius 30.9849
rwrist 2.8899
rhand -12.6033 8.56204
rfingers 7.12502
rthumb 13.4756 -20.982
lclavicle 9.50191e-014 -1.59028e-014
lhumerus -6.75983 -26.8676 95.3124
lradius 55.2774
lwrist 13.5566
lhand -15.2017 -13.4261
lfingers 7.12502
lthumb 10.9702 16.2673
rfemur -31.8596 1.55791 18.4302
rtibia 36.4632
rfoot 10.0018 1.01689
rtoes -35.6098
lfemur 14.2617 2.80498 -15.6592
ltibia 21.5502
lfoot -17.5631 -14.2361
ltoes 5.6361
164
root -2.09636 17.2205 -0.770275 898.046 43.5099 -174.019
lowerback 17.8853 -5.38454 1.27901
upperback 16.0711 -4.46592 5.07156
thorax 7.94536 -1.39478 5.42431
lowerneck -21.1891 -11.13 -19.7258
upperneck -4.74297 -10.7207 30.4419
head 5.46113 -3.36643 12.3876
rclavicle 2.06736e-014 -7.71285e-014
rhumerus -31.0133 1.55856 -78.9704
rradius 30.8152
rwrist 3.53228
rhand -12.5869 8.66842
rfingers 7.12502
rthumb 13.4913 -20.8746
lclavicle 2.06736e-014 -7.71285e-014
lhumerus -7.03759 -26.5852 95.5284
lradius 55.1121
lwrist 13.5296
lhand -15.2266 -13.4358
lfingers 7.12502
lthumb 10.9462 16.2588
rfemur -31.9545 1.1806 18.5001
rtibia 36.7553
rfoot 9.82268 1.41868
rtoes -35.4207
lfemur 14.6325 2.74246 -15.5571
ltibia 21.3173
lfoot -17.5739 -14.4269
ltoes 5.54528
165
root -2.01715 17.2043 -0.820447 898.087 43.3367 -174.033
lowerback 17.926 -5.4614 1.32533
upperback 16.0332 -4.55589 5.14238
thorax 7.89241 -1.43861 5.48817
lowerneck -21.2815 -11.0786 -19.6202
upperneck -4.73514 -10.6457 30.3238
head 5.43815 -3.32709 12.3332
rclavicle 5.00937e-014 -6.04305e-014
rhumerus -31.0745 1.27488 -78.8009
rradius 30.6303
rwrist 4.06013
rhand -12.55 8.81002
rfingers 7.12502
rthumb 13.527 -20.7306
lclavicle 5.00937e-014 -6.04305e-014
lhumerus -7.30598 -26.3434 95.7249
lradius 54.9162
lwrist 13.493
lhand -15.2781 -13.4025
lfingers 7.12502
lthumb 10.8965 16.2948
rfemur -32.0425 0.743613 18.6259
rtibia 37.1278
rfoot 9.5917 1.77938
rtoes -35.0808
lfemur 14.9935 2.6845 -15.4134
ltibia 21.1112
lfoot -17.5895 -14.6112
ltoes 5.52693
